<svg xmlns="http://www.w3.org/2000/svg" version="1.1" xmlns:xlink="http://www.w3.org/1999/xlink" xmlns:svgjs="http://svgjs.dev/svgjs" width="1920" height="1080" preserveAspectRatio="none" viewBox="0 0 1920 1080"><g mask="url(&quot;#SvgjsMask1019&quot;)" fill="none"><path d="M47.16 648.47L112.11 685.97L112.11 760.97L47.16 798.47L-17.79 760.97L-17.79 685.97zM47.16 1098.47L112.11 1135.97L112.11 1210.97L47.16 1248.47L-17.79 1210.97L-17.79 1135.97zM371.93 85.97L436.88 123.47L436.88 198.47L371.93 235.97L306.98 198.47L306.98 123.47zM501.84 85.97L566.79 123.47L566.79 198.47L501.84 235.97L436.88 198.47L436.88 123.47zM566.79 648.47L631.74 685.97L631.74 760.97L566.79 798.47L501.84 760.97L501.84 685.97zM696.7 648.47L761.65 685.97L761.65 760.97L696.7 798.47L631.74 760.97L631.74 685.97zM696.7 873.47L761.65 910.97L761.65 985.97L696.7 1023.47L631.74 985.97L631.74 910.97zM826.6 -26.53L891.56 10.97L891.56 85.97L826.6 123.47L761.65 85.97L761.65 10.97zM956.51 -26.53L1021.47 10.97L1021.47 85.97L956.51 123.47L891.56 85.97L891.56 10.97zM956.51 198.47L1021.47 235.97L1021.47 310.97L956.51 348.47L891.56 310.97L891.56 235.97zM1086.42 648.47L1151.37 685.97L1151.37 760.97L1086.42 798.47L1021.47 760.97L1021.47 685.97zM1216.33 -26.53L1281.28 10.97L1281.28 85.97L1216.33 123.47L1151.37 85.97L1151.37 10.97zM1216.33 873.47L1281.28 910.97L1281.28 985.97L1216.33 1023.47L1151.37 985.97L1151.37 910.97zM1281.28 985.97L1346.23 1023.47L1346.23 1098.47L1281.28 1135.97L1216.33 1098.47L1216.33 1023.47zM1346.24 423.47L1411.19 460.97L1411.19 535.97L1346.24 573.47L1281.28 535.97L1281.28 460.97zM1346.24 648.47L1411.19 685.97L1411.19 760.97L1346.24 798.47L1281.28 760.97L1281.28 685.97zM1346.24 1098.47L1411.19 1135.97L1411.19 1210.97L1346.24 1248.47L1281.28 1210.97L1281.28 1135.97zM1606.05 648.47L1671 685.97L1671 760.97L1606.05 798.47L1541.1 760.97L1541.1 685.97zM1930.82 85.97L1995.77 123.47L1995.77 198.47L1930.82 235.97L1865.87 198.47L1865.87 123.47z" stroke="rgba(123, 22, 26, 0.54)" stroke-width="2"></path><path d="M39.66 648.47 a7.5 7.5 0 1 0 15 0 a7.5 7.5 0 1 0 -15 0zM104.61 685.97 a7.5 7.5 0 1 0 15 0 a7.5 7.5 0 1 0 -15 0zM104.61 760.97 a7.5 7.5 0 1 0 15 0 a7.5 7.5 0 1 0 -15 0zM39.66 798.47 a7.5 7.5 0 1 0 15 0 a7.5 7.5 0 1 0 -15 0zM-25.29 760.97 a7.5 7.5 0 1 0 15 0 a7.5 7.5 0 1 0 -15 0zM-25.29 685.97 a7.5 7.5 0 1 0 15 0 a7.5 7.5 0 1 0 -15 0zM39.66 1098.47 a7.5 7.5 0 1 0 15 0 a7.5 7.5 0 1 0 -15 0zM104.61 1135.97 a7.5 7.5 0 1 0 15 0 a7.5 7.5 0 1 0 -15 0zM104.61 1210.97 a7.5 7.5 0 1 0 15 0 a7.5 7.5 0 1 0 -15 0zM39.66 1248.47 a7.5 7.5 0 1 0 15 0 a7.5 7.5 0 1 0 -15 0zM-25.29 1210.97 a7.5 7.5 0 1 0 15 0 a7.5 7.5 0 1 0 -15 0zM-25.29 1135.97 a7.5 7.5 0 1 0 15 0 a7.5 7.5 0 1 0 -15 0zM364.43 85.97 a7.5 7.5 0 1 0 15 0 a7.5 7.5 0 1 0 -15 0zM429.38 123.47 a7.5 7.5 0 1 0 15 0 a7.5 7.5 0 1 0 -15 0zM429.38 198.47 a7.5 7.5 0 1 0 15 0 a7.5 7.5 0 1 0 -15 0zM364.43 235.97 a7.5 7.5 0 1 0 15 0 a7.5 7.5 0 1 0 -15 0zM299.48 198.47 a7.5 7.5 0 1 0 15 0 a7.5 7.5 0 1 0 -15 0zM299.48 123.47 a7.5 7.5 0 1 0 15 0 a7.5 7.5 0 1 0 -15 0zM494.34 85.97 a7.5 7.5 0 1 0 15 0 a7.5 7.5 0 1 0 -15 0zM559.29 123.47 a7.5 7.5 0 1 0 15 0 a7.5 7.5 0 1 0 -15 0zM559.29 198.47 a7.5 7.5 0 1 0 15 0 a7.5 7.5 0 1 0 -15 0zM494.34 235.97 a7.5 7.5 0 1 0 15 0 a7.5 7.5 0 1 0 -15 0zM559.29 648.47 a7.5 7.5 0 1 0 15 0 a7.5 7.5 0 1 0 -15 0zM624.24 685.97 a7.5 7.5 0 1 0 15 0 a7.5 7.5 0 1 0 -15 0zM624.24 760.97 a7.5 7.5 0 1 0 15 0 a7.5 7.5 0 1 0 -15 0zM559.29 798.47 a7.5 7.5 0 1 0 15 0 a7.5 7.5 0 1 0 -15 0zM494.34 760.97 a7.5 7.5 0 1 0 15 0 a7.5 7.5 0 1 0 -15 0zM494.34 685.97 a7.5 7.5 0 1 0 15 0 a7.5 7.5 0 1 0 -15 0zM689.2 648.47 a7.5 7.5 0 1 0 15 0 a7.5 7.5 0 1 0 -15 0zM754.15 685.97 a7.5 7.5 0 1 0 15 0 a7.5 7.5 0 1 0 -15 0zM754.15 760.97 a7.5 7.5 0 1 0 15 0 a7.5 7.5 0 1 0 -15 0zM689.2 798.47 a7.5 7.5 0 1 0 15 0 a7.5 7.5 0 1 0 -15 0zM689.2 873.47 a7.5 7.5 0 1 0 15 0 a7.5 7.5 0 1 0 -15 0zM754.15 910.97 a7.5 7.5 0 1 0 15 0 a7.5 7.5 0 1 0 -15 0zM754.15 985.97 a7.5 7.5 0 1 0 15 0 a7.5 7.5 0 1 0 -15 0zM689.2 1023.47 a7.5 7.5 0 1 0 15 0 a7.5 7.5 0 1 0 -15 0zM624.24 985.97 a7.5 7.5 0 1 0 15 0 a7.5 7.5 0 1 0 -15 0zM624.24 910.97 a7.5 7.5 0 1 0 15 0 a7.5 7.5 0 1 0 -15 0zM819.1 -26.53 a7.5 7.5 0 1 0 15 0 a7.5 7.5 0 1 0 -15 0zM884.06 10.97 a7.5 7.5 0 1 0 15 0 a7.5 7.5 0 1 0 -15 0zM884.06 85.97 a7.5 7.5 0 1 0 15 0 a7.5 7.5 0 1 0 -15 0zM819.1 123.47 a7.5 7.5 0 1 0 15 0 a7.5 7.5 0 1 0 -15 0zM754.15 85.97 a7.5 7.5 0 1 0 15 0 a7.5 7.5 0 1 0 -15 0zM754.15 10.97 a7.5 7.5 0 1 0 15 0 a7.5 7.5 0 1 0 -15 0zM949.01 -26.53 a7.5 7.5 0 1 0 15 0 a7.5 7.5 0 1 0 -15 0zM1013.97 10.97 a7.5 7.5 0 1 0 15 0 a7.5 7.5 0 1 0 -15 0zM1013.97 85.97 a7.5 7.5 0 1 0 15 0 a7.5 7.5 0 1 0 -15 0zM949.01 123.47 a7.5 7.5 0 1 0 15 0 a7.5 7.5 0 1 0 -15 0zM949.01 198.47 a7.5 7.5 0 1 0 15 0 a7.5 7.5 0 1 0 -15 0zM1013.97 235.97 a7.5 7.5 0 1 0 15 0 a7.5 7.5 0 1 0 -15 0zM1013.97 310.97 a7.5 7.5 0 1 0 15 0 a7.5 7.5 0 1 0 -15 0zM949.01 348.47 a7.5 7.5 0 1 0 15 0 a7.5 7.5 0 1 0 -15 0zM884.06 310.97 a7.5 7.5 0 1 0 15 0 a7.5 7.5 0 1 0 -15 0zM884.06 235.97 a7.5 7.5 0 1 0 15 0 a7.5 7.5 0 1 0 -15 0zM1078.92 648.47 a7.5 7.5 0 1 0 15 0 a7.5 7.5 0 1 0 -15 0zM1143.87 685.97 a7.5 7.5 0 1 0 15 0 a7.5 7.5 0 1 0 -15 0zM1143.87 760.97 a7.5 7.5 0 1 0 15 0 a7.5 7.5 0 1 0 -15 0zM1078.92 798.47 a7.5 7.5 0 1 0 15 0 a7.5 7.5 0 1 0 -15 0zM1013.97 760.97 a7.5 7.5 0 1 0 15 0 a7.5 7.5 0 1 0 -15 0zM1013.97 685.97 a7.5 7.5 0 1 0 15 0 a7.5 7.5 0 1 0 -15 0zM1208.83 -26.53 a7.5 7.5 0 1 0 15 0 a7.5 7.5 0 1 0 -15 0zM1273.78 10.97 a7.5 7.5 0 1 0 15 0 a7.5 7.5 0 1 0 -15 0zM1273.78 85.97 a7.5 7.5 0 1 0 15 0 a7.5 7.5 0 1 0 -15 0zM1208.83 123.47 a7.5 7.5 0 1 0 15 0 a7.5 7.5 0 1 0 -15 0zM1143.87 85.97 a7.5 7.5 0 1 0 15 0 a7.5 7.5 0 1 0 -15 0zM1143.87 10.97 a7.5 7.5 0 1 0 15 0 a7.5 7.5 0 1 0 -15 0zM1208.83 873.47 a7.5 7.5 0 1 0 15 0 a7.5 7.5 0 1 0 -15 0zM1273.78 910.97 a7.5 7.5 0 1 0 15 0 a7.5 7.5 0 1 0 -15 0zM1273.78 985.97 a7.5 7.5 0 1 0 15 0 a7.5 7.5 0 1 0 -15 0zM1208.83 1023.47 a7.5 7.5 0 1 0 15 0 a7.5 7.5 0 1 0 -15 0zM1143.87 985.97 a7.5 7.5 0 1 0 15 0 a7.5 7.5 0 1 0 -15 0zM1143.87 910.97 a7.5 7.5 0 1 0 15 0 a7.5 7.5 0 1 0 -15 0zM1338.73 1023.47 a7.5 7.5 0 1 0 15 0 a7.5 7.5 0 1 0 -15 0zM1338.73 1098.47 a7.5 7.5 0 1 0 15 0 a7.5 7.5 0 1 0 -15 0zM1273.78 1135.97 a7.5 7.5 0 1 0 15 0 a7.5 7.5 0 1 0 -15 0zM1208.83 1098.47 a7.5 7.5 0 1 0 15 0 a7.5 7.5 0 1 0 -15 0zM1338.74 423.47 a7.5 7.5 0 1 0 15 0 a7.5 7.5 0 1 0 -15 0zM1403.69 460.97 a7.5 7.5 0 1 0 15 0 a7.5 7.5 0 1 0 -15 0zM1403.69 535.97 a7.5 7.5 0 1 0 15 0 a7.5 7.5 0 1 0 -15 0zM1338.74 573.47 a7.5 7.5 0 1 0 15 0 a7.5 7.5 0 1 0 -15 0zM1273.78 535.97 a7.5 7.5 0 1 0 15 0 a7.5 7.5 0 1 0 -15 0zM1273.78 460.97 a7.5 7.5 0 1 0 15 0 a7.5 7.5 0 1 0 -15 0zM1338.74 648.47 a7.5 7.5 0 1 0 15 0 a7.5 7.5 0 1 0 -15 0zM1403.69 685.97 a7.5 7.5 0 1 0 15 0 a7.5 7.5 0 1 0 -15 0zM1403.69 760.97 a7.5 7.5 0 1 0 15 0 a7.5 7.5 0 1 0 -15 0zM1338.74 798.47 a7.5 7.5 0 1 0 15 0 a7.5 7.5 0 1 0 -15 0zM1273.78 760.97 a7.5 7.5 0 1 0 15 0 a7.5 7.5 0 1 0 -15 0zM1273.78 685.97 a7.5 7.5 0 1 0 15 0 a7.5 7.5 0 1 0 -15 0zM1338.74 1098.47 a7.5 7.5 0 1 0 15 0 a7.5 7.5 0 1 0 -15 0zM1403.69 1135.97 a7.5 7.5 0 1 0 15 0 a7.5 7.5 0 1 0 -15 0zM1403.69 1210.97 a7.5 7.5 0 1 0 15 0 a7.5 7.5 0 1 0 -15 0zM1338.74 1248.47 a7.5 7.5 0 1 0 15 0 a7.5 7.5 0 1 0 -15 0zM1273.78 1210.97 a7.5 7.5 0 1 0 15 0 a7.5 7.5 0 1 0 -15 0zM1598.55 648.47 a7.5 7.5 0 1 0 15 0 a7.5 7.5 0 1 0 -15 0zM1663.5 685.97 a7.5 7.5 0 1 0 15 0 a7.5 7.5 0 1 0 -15 0zM1663.5 760.97 a7.5 7.5 0 1 0 15 0 a7.5 7.5 0 1 0 -15 0zM1598.55 798.47 a7.5 7.5 0 1 0 15 0 a7.5 7.5 0 1 0 -15 0zM1533.6 760.97 a7.5 7.5 0 1 0 15 0 a7.5 7.5 0 1 0 -15 0zM1533.6 685.97 a7.5 7.5 0 1 0 15 0 a7.5 7.5 0 1 0 -15 0zM1923.32 85.97 a7.5 7.5 0 1 0 15 0 a7.5 7.5 0 1 0 -15 0zM1988.27 123.47 a7.5 7.5 0 1 0 15 0 a7.5 7.5 0 1 0 -15 0zM1988.27 198.47 a7.5 7.5 0 1 0 15 0 a7.5 7.5 0 1 0 -15 0zM1923.32 235.97 a7.5 7.5 0 1 0 15 0 a7.5 7.5 0 1 0 -15 0zM1858.37 198.47 a7.5 7.5 0 1 0 15 0 a7.5 7.5 0 1 0 -15 0zM1858.37 123.47 a7.5 7.5 0 1 0 15 0 a7.5 7.5 0 1 0 -15 0z" fill="rgba(123, 22, 26, 0.54)"></path><path d="M67.33 190.01L110.64 215.01L110.64 265.01L67.33 290.01L24.03 265.01L24.03 215.01zM67.33 340.01L110.64 365.01L110.64 415.01L67.33 440.01L24.03 415.01L24.03 365.01zM67.33 640.01L110.64 665.01L110.64 715.01L67.33 740.01L24.03 715.01L24.03 665.01zM67.33 790.01L110.64 815.01L110.64 865.01L67.33 890.01L24.03 865.01L24.03 815.01zM24.03 1015.01L67.33 1040.01L67.33 1090.01L24.03 1115.01L-19.27 1090.01L-19.27 1040.01zM153.94 40.01L197.24 65.01L197.24 115.01L153.94 140.01L110.64 115.01L110.64 65.01zM153.94 190.01L197.24 215.01L197.24 265.01L153.94 290.01L110.64 265.01L110.64 215.01zM110.64 265.01L153.94 290.01L153.94 340.01L110.64 365.01L67.33 340.01L67.33 290.01zM153.94 340.01L197.24 365.01L197.24 415.01L153.94 440.01L110.64 415.01L110.64 365.01zM110.64 415.01L153.94 440.01L153.94 490.01L110.64 515.01L67.33 490.01L67.33 440.01zM153.94 640.01L197.24 665.01L197.24 715.01L153.94 740.01L110.64 715.01L110.64 665.01zM110.64 865.01L153.94 890.01L153.94 940.01L110.64 965.01L67.33 940.01L67.33 890.01zM197.24 -34.99L240.54 -9.99L240.54 40.01L197.24 65.01L153.94 40.01L153.94 -9.99zM197.24 415.01L240.54 440.01L240.54 490.01L197.24 515.01L153.94 490.01L153.94 440.01zM240.54 490.01L283.85 515.01L283.85 565.01L240.54 590.01L197.24 565.01L197.24 515.01zM197.24 865.01L240.54 890.01L240.54 940.01L197.24 965.01L153.94 940.01L153.94 890.01zM240.54 940.01L283.85 965.01L283.85 1015.01L240.54 1040.01L197.24 1015.01L197.24 965.01zM283.85 115.01L327.15 140.01L327.15 190.01L283.85 215.01L240.54 190.01L240.54 140.01zM327.15 190.01L370.45 215.01L370.45 265.01L327.15 290.01L283.85 265.01L283.85 215.01zM283.85 265.01L327.15 290.01L327.15 340.01L283.85 365.01L240.54 340.01L240.54 290.01zM327.15 340.01L370.45 365.01L370.45 415.01L327.15 440.01L283.85 415.01L283.85 365.01zM283.85 565.01L327.15 590.01L327.15 640.01L283.85 665.01L240.54 640.01L240.54 590.01zM327.15 640.01L370.45 665.01L370.45 715.01L327.15 740.01L283.85 715.01L283.85 665.01zM283.85 715.01L327.15 740.01L327.15 790.01L283.85 815.01L240.54 790.01L240.54 740.01zM327.15 790.01L370.45 815.01L370.45 865.01L327.15 890.01L283.85 865.01L283.85 815.01zM283.85 865.01L327.15 890.01L327.15 940.01L283.85 965.01L240.54 940.01L240.54 890.01zM283.85 1015.01L327.15 1040.01L327.15 1090.01L283.85 1115.01L240.54 1090.01L240.54 1040.01zM370.45 265.01L413.75 290.01L413.75 340.01L370.45 365.01L327.15 340.01L327.15 290.01zM370.45 415.01L413.75 440.01L413.75 490.01L370.45 515.01L327.15 490.01L327.15 440.01zM413.75 490.01L457.06 515.01L457.06 565.01L413.75 590.01L370.45 565.01L370.45 515.01zM413.75 640.01L457.06 665.01L457.06 715.01L413.75 740.01L370.45 715.01L370.45 665.01zM370.45 715.01L413.75 740.01L413.75 790.01L370.45 815.01L327.15 790.01L327.15 740.01zM370.45 865.01L413.75 890.01L413.75 940.01L370.45 965.01L327.15 940.01L327.15 890.01zM370.45 1015.01L413.75 1040.01L413.75 1090.01L370.45 1115.01L327.15 1090.01L327.15 1040.01zM457.06 115.01L500.36 140.01L500.36 190.01L457.06 215.01L413.75 190.01L413.75 140.01zM457.06 265.01L500.36 290.01L500.36 340.01L457.06 365.01L413.75 340.01L413.75 290.01zM457.06 415.01L500.36 440.01L500.36 490.01L457.06 515.01L413.75 490.01L413.75 440.01zM457.06 565.01L500.36 590.01L500.36 640.01L457.06 665.01L413.75 640.01L413.75 590.01zM457.06 715.01L500.36 740.01L500.36 790.01L457.06 815.01L413.75 790.01L413.75 740.01zM457.06 865.01L500.36 890.01L500.36 940.01L457.06 965.01L413.75 940.01L413.75 890.01zM586.96 40.01L630.26 65.01L630.26 115.01L586.96 140.01L543.66 115.01L543.66 65.01zM543.66 265.01L586.96 290.01L586.96 340.01L543.66 365.01L500.36 340.01L500.36 290.01zM586.96 340.01L630.26 365.01L630.26 415.01L586.96 440.01L543.66 415.01L543.66 365.01zM586.96 490.01L630.26 515.01L630.26 565.01L586.96 590.01L543.66 565.01L543.66 515.01zM586.96 640.01L630.26 665.01L630.26 715.01L586.96 740.01L543.66 715.01L543.66 665.01zM586.96 940.01L630.26 965.01L630.26 1015.01L586.96 1040.01L543.66 1015.01L543.66 965.01zM543.66 1015.01L586.96 1040.01L586.96 1090.01L543.66 1115.01L500.36 1090.01L500.36 1040.01zM630.26 -34.99L673.57 -9.99L673.57 40.01L630.26 65.01L586.96 40.01L586.96 -9.99zM630.26 265.01L673.57 290.01L673.57 340.01L630.26 365.01L586.96 340.01L586.96 290.01zM630.26 415.01L673.57 440.01L673.57 490.01L630.26 515.01L586.96 490.01L586.96 440.01zM630.26 565.01L673.57 590.01L673.57 640.01L630.26 665.01L586.96 640.01L586.96 590.01zM673.57 640.01L716.87 665.01L716.87 715.01L673.57 740.01L630.26 715.01L630.26 665.01zM630.26 715.01L673.57 740.01L673.57 790.01L630.26 815.01L586.96 790.01L586.96 740.01zM673.57 790.01L716.87 815.01L716.87 865.01L673.57 890.01L630.26 865.01L630.26 815.01zM673.57 940.01L716.87 965.01L716.87 1015.01L673.57 1040.01L630.26 1015.01L630.26 965.01zM716.87 115.01L760.17 140.01L760.17 190.01L716.87 215.01L673.57 190.01L673.57 140.01zM760.17 190.01L803.48 215.01L803.48 265.01L760.17 290.01L716.87 265.01L716.87 215.01zM716.87 415.01L760.17 440.01L760.17 490.01L716.87 515.01L673.57 490.01L673.57 440.01zM760.17 490.01L803.48 515.01L803.48 565.01L760.17 590.01L716.87 565.01L716.87 515.01zM716.87 565.01L760.17 590.01L760.17 640.01L716.87 665.01L673.57 640.01L673.57 590.01zM716.87 1015.01L760.17 1040.01L760.17 1090.01L716.87 1115.01L673.57 1090.01L673.57 1040.01zM803.48 115.01L846.78 140.01L846.78 190.01L803.48 215.01L760.17 190.01L760.17 140.01zM846.78 190.01L890.08 215.01L890.08 265.01L846.78 290.01L803.48 265.01L803.48 215.01zM803.48 265.01L846.78 290.01L846.78 340.01L803.48 365.01L760.17 340.01L760.17 290.01zM803.48 565.01L846.78 590.01L846.78 640.01L803.48 665.01L760.17 640.01L760.17 590.01zM846.78 640.01L890.08 665.01L890.08 715.01L846.78 740.01L803.48 715.01L803.48 665.01zM803.48 715.01L846.78 740.01L846.78 790.01L803.48 815.01L760.17 790.01L760.17 740.01zM846.78 790.01L890.08 815.01L890.08 865.01L846.78 890.01L803.48 865.01L803.48 815.01zM933.38 40.01L976.69 65.01L976.69 115.01L933.38 140.01L890.08 115.01L890.08 65.01zM933.38 490.01L976.69 515.01L976.69 565.01L933.38 590.01L890.08 565.01L890.08 515.01zM933.38 640.01L976.69 665.01L976.69 715.01L933.38 740.01L890.08 715.01L890.08 665.01zM933.38 790.01L976.69 815.01L976.69 865.01L933.38 890.01L890.08 865.01L890.08 815.01zM890.08 865.01L933.38 890.01L933.38 940.01L890.08 965.01L846.78 940.01L846.78 890.01zM890.08 1015.01L933.38 1040.01L933.38 1090.01L890.08 1115.01L846.78 1090.01L846.78 1040.01zM976.69 -34.99L1019.99 -9.99L1019.99 40.01L976.69 65.01L933.38 40.01L933.38 -9.99zM976.69 115.01L1019.99 140.01L1019.99 190.01L976.69 215.01L933.38 190.01L933.38 140.01zM1019.99 340.01L1063.29 365.01L1063.29 415.01L1019.99 440.01L976.69 415.01L976.69 365.01zM1019.99 490.01L1063.29 515.01L1063.29 565.01L1019.99 590.01L976.69 565.01L976.69 515.01zM976.69 715.01L1019.99 740.01L1019.99 790.01L976.69 815.01L933.38 790.01L933.38 740.01zM976.69 1015.01L1019.99 1040.01L1019.99 1090.01L976.69 1115.01L933.38 1090.01L933.38 1040.01zM1063.29 -34.99L1106.59 -9.99L1106.59 40.01L1063.29 65.01L1019.99 40.01L1019.99 -9.99zM1063.29 265.01L1106.59 290.01L1106.59 340.01L1063.29 365.01L1019.99 340.01L1019.99 290.01zM1063.29 565.01L1106.59 590.01L1106.59 640.01L1063.29 665.01L1019.99 640.01L1019.99 590.01zM1063.29 715.01L1106.59 740.01L1106.59 790.01L1063.29 815.01L1019.99 790.01L1019.99 740.01zM1106.59 790.01L1149.89 815.01L1149.89 865.01L1106.59 890.01L1063.29 865.01L1063.29 815.01zM1193.2 40.01L1236.5 65.01L1236.5 115.01L1193.2 140.01L1149.89 115.01L1149.89 65.01zM1149.89 415.01L1193.2 440.01L1193.2 490.01L1149.89 515.01L1106.59 490.01L1106.59 440.01zM1193.2 790.01L1236.5 815.01L1236.5 865.01L1193.2 890.01L1149.89 865.01L1149.89 815.01zM1193.2 940.01L1236.5 965.01L1236.5 1015.01L1193.2 1040.01L1149.89 1015.01L1149.89 965.01zM1149.89 1015.01L1193.2 1040.01L1193.2 1090.01L1149.89 1115.01L1106.59 1090.01L1106.59 1040.01zM1236.5 265.01L1279.8 290.01L1279.8 340.01L1236.5 365.01L1193.2 340.01L1193.2 290.01zM1279.8 340.01L1323.11 365.01L1323.11 415.01L1279.8 440.01L1236.5 415.01L1236.5 365.01zM1236.5 415.01L1279.8 440.01L1279.8 490.01L1236.5 515.01L1193.2 490.01L1193.2 440.01zM1279.8 640.01L1323.11 665.01L1323.11 715.01L1279.8 740.01L1236.5 715.01L1236.5 665.01zM1279.8 790.01L1323.11 815.01L1323.11 865.01L1279.8 890.01L1236.5 865.01L1236.5 815.01zM1323.11 115.01L1366.41 140.01L1366.41 190.01L1323.11 215.01L1279.8 190.01L1279.8 140.01zM1366.41 490.01L1409.71 515.01L1409.71 565.01L1366.41 590.01L1323.11 565.01L1323.11 515.01zM1323.11 565.01L1366.41 590.01L1366.41 640.01L1323.11 665.01L1279.8 640.01L1279.8 590.01zM1323.11 715.01L1366.41 740.01L1366.41 790.01L1323.11 815.01L1279.8 790.01L1279.8 740.01zM1366.41 940.01L1409.71 965.01L1409.71 1015.01L1366.41 1040.01L1323.11 1015.01L1323.11 965.01zM1409.71 -34.99L1453.01 -9.99L1453.01 40.01L1409.71 65.01L1366.41 40.01L1366.41 -9.99zM1409.71 115.01L1453.01 140.01L1453.01 190.01L1409.71 215.01L1366.41 190.01L1366.41 140.01zM1453.01 340.01L1496.32 365.01L1496.32 415.01L1453.01 440.01L1409.71 415.01L1409.71 365.01zM1453.01 490.01L1496.32 515.01L1496.32 565.01L1453.01 590.01L1409.71 565.01L1409.71 515.01zM1496.32 -34.99L1539.62 -9.99L1539.62 40.01L1496.32 65.01L1453.01 40.01L1453.01 -9.99zM1496.32 115.01L1539.62 140.01L1539.62 190.01L1496.32 215.01L1453.01 190.01L1453.01 140.01zM1539.62 190.01L1582.92 215.01L1582.92 265.01L1539.62 290.01L1496.32 265.01L1496.32 215.01zM1539.62 340.01L1582.92 365.01L1582.92 415.01L1539.62 440.01L1496.32 415.01L1496.32 365.01zM1496.32 565.01L1539.62 590.01L1539.62 640.01L1496.32 665.01L1453.01 640.01L1453.01 590.01zM1496.32 715.01L1539.62 740.01L1539.62 790.01L1496.32 815.01L1453.01 790.01L1453.01 740.01zM1582.92 -34.99L1626.22 -9.99L1626.22 40.01L1582.92 65.01L1539.62 40.01L1539.62 -9.99zM1626.22 340.01L1669.53 365.01L1669.53 415.01L1626.22 440.01L1582.92 415.01L1582.92 365.01zM1582.92 565.01L1626.22 590.01L1626.22 640.01L1582.92 665.01L1539.62 640.01L1539.62 590.01zM1626.22 940.01L1669.53 965.01L1669.53 1015.01L1626.22 1040.01L1582.92 1015.01L1582.92 965.01zM1669.53 -34.99L1712.83 -9.99L1712.83 40.01L1669.53 65.01L1626.22 40.01L1626.22 -9.99zM1712.83 190.01L1756.13 215.01L1756.13 265.01L1712.83 290.01L1669.53 265.01L1669.53 215.01zM1669.53 265.01L1712.83 290.01L1712.83 340.01L1669.53 365.01L1626.22 340.01L1626.22 290.01zM1712.83 490.01L1756.13 515.01L1756.13 565.01L1712.83 590.01L1669.53 565.01L1669.53 515.01zM1712.83 790.01L1756.13 815.01L1756.13 865.01L1712.83 890.01L1669.53 865.01L1669.53 815.01zM1712.83 940.01L1756.13 965.01L1756.13 1015.01L1712.83 1040.01L1669.53 1015.01L1669.53 965.01zM1756.13 -34.99L1799.43 -9.99L1799.43 40.01L1756.13 65.01L1712.83 40.01L1712.83 -9.99zM1756.13 265.01L1799.43 290.01L1799.43 340.01L1756.13 365.01L1712.83 340.01L1712.83 290.01zM1799.43 490.01L1842.74 515.01L1842.74 565.01L1799.43 590.01L1756.13 565.01L1756.13 515.01zM1756.13 565.01L1799.43 590.01L1799.43 640.01L1756.13 665.01L1712.83 640.01L1712.83 590.01zM1756.13 715.01L1799.43 740.01L1799.43 790.01L1756.13 815.01L1712.83 790.01L1712.83 740.01zM1756.13 865.01L1799.43 890.01L1799.43 940.01L1756.13 965.01L1712.83 940.01L1712.83 890.01zM1799.43 940.01L1842.74 965.01L1842.74 1015.01L1799.43 1040.01L1756.13 1015.01L1756.13 965.01zM1886.04 40.01L1929.34 65.01L1929.34 115.01L1886.04 140.01L1842.74 115.01L1842.74 65.01zM1842.74 415.01L1886.04 440.01L1886.04 490.01L1842.74 515.01L1799.43 490.01L1799.43 440.01zM1886.04 640.01L1929.34 665.01L1929.34 715.01L1886.04 740.01L1842.74 715.01L1842.74 665.01zM1886.04 790.01L1929.34 815.01L1929.34 865.01L1886.04 890.01L1842.74 865.01L1842.74 815.01zM1886.04 940.01L1929.34 965.01L1929.34 1015.01L1886.04 1040.01L1842.74 1015.01L1842.74 965.01zM1929.34 715.01L1972.64 740.01L1972.64 790.01L1929.34 815.01L1886.04 790.01L1886.04 740.01z" stroke="rgba(123, 22, 26, 0.34)" stroke-width="2"></path></g><defs><mask id="SvgjsMask1019"><rect width="1920" height="1080" fill="#ffffff"></rect></mask></defs></svg>